<svg xmlns="http://www.w3.org/2000/svg" xmlns:xlink="http://www.w3.org/1999/xlink" id="Layer_1" width="45.497" height="45.498" x="0" y="0" version="1.1" viewBox="0 0 45.497 45.498" style="enable-background:new 0 0 45.497 45.498" xml:space="preserve"><g><g><linearGradient id="SVGID_1_" x1="43.607" x2="1.157" y1="1.892" y2="44.342" gradientUnits="userSpaceOnUse"><stop offset="0" style="stop-color:#31c2dd"/><stop offset="1" style="stop-color:#0b9bd7"/></linearGradient><path style="fill:url(#SVGID_1_)" d="M22.749,35c-6.755,0-12.25-5.495-12.25-12.25s5.495-12.25,12.25-12.25 s12.25,5.495,12.25,12.25S29.504,35,22.749,35L22.749,35z M22.749,14.5c-4.549,0-8.25,3.701-8.25,8.25S18.2,31,22.749,31 s8.25-3.701,8.25-8.25S27.298,14.5,22.749,14.5L22.749,14.5z"/></g><g><linearGradient id="SVGID_2_" x1="34.106" x2="-8.342" y1="-7.608" y2="34.841" gradientUnits="userSpaceOnUse"><stop offset="0" style="stop-color:#31c2dd"/><stop offset="1" style="stop-color:#0b9bd7"/></linearGradient><path style="fill:url(#SVGID_2_)" d="M22.999,7c-0.829,0-1.5-0.672-1.5-1.5v-4c0-0.828,0.671-1.5,1.5-1.5 c0.828,0,1.5,0.672,1.5,1.5v4C24.499,6.328,23.827,7,22.999,7L22.999,7z"/></g><g><linearGradient id="SVGID_3_" x1="30.505" x2="-11.945" y1="-11.21" y2="31.239" gradientUnits="userSpaceOnUse"><stop offset="0" style="stop-color:#31c2dd"/><stop offset="1" style="stop-color:#0b9bd7"/></linearGradient><path style="fill:url(#SVGID_3_)" d="M14.342,9.186c-0.519,0-1.022-0.269-1.3-0.75l-2-3.463 c-0.415-0.717-0.169-1.635,0.549-2.049c0.717-0.415,1.635-0.169,2.049,0.549l2,3.463c0.415,0.717,0.169,1.635-0.549,2.049 C14.855,9.121,14.597,9.186,14.342,9.186L14.342,9.186z"/></g><g><linearGradient id="SVGID_4_" x1="30.414" x2="-12.036" y1="-11.301" y2="31.149" gradientUnits="userSpaceOnUse"><stop offset="0" style="stop-color:#31c2dd"/><stop offset="1" style="stop-color:#0b9bd7"/></linearGradient><path style="fill:url(#SVGID_4_)" d="M7.934,15.408c-0.254,0-0.512-0.064-0.749-0.201l-3.464-2 c-0.717-0.414-0.963-1.331-0.549-2.049s1.331-0.964,2.049-0.549l3.464,2c0.717,0.414,0.963,1.331,0.549,2.049 C8.957,15.14,8.453,15.408,7.934,15.408L7.934,15.408z"/></g><g><linearGradient id="SVGID_5_" x1="33.858" x2="-8.592" y1="-7.857" y2="34.593" gradientUnits="userSpaceOnUse"><stop offset="0" style="stop-color:#31c2dd"/><stop offset="1" style="stop-color:#0b9bd7"/></linearGradient><path style="fill:url(#SVGID_5_)" d="M5.5,24h-4C0.671,24,0,23.328,0,22.5S0.671,21,1.5,21h4C6.329,21,7,21.672,7,22.5 S6.329,24,5.5,24L5.5,24z"/></g><g><linearGradient id="SVGID_6_" x1="39.916" x2="-2.537" y1="-1.803" y2="40.65" gradientUnits="userSpaceOnUse"><stop offset="0" style="stop-color:#31c2dd"/><stop offset="1" style="stop-color:#0b9bd7"/></linearGradient><path style="fill:url(#SVGID_6_)" d="M4.224,34.658c-0.519,0-1.022-0.269-1.3-0.75c-0.415-0.717-0.169-1.635,0.549-2.049l3.463-2 c0.718-0.414,1.635-0.168,2.049,0.549c0.415,0.717,0.169,1.635-0.549,2.049l-3.463,2C4.737,34.594,4.479,34.658,4.224,34.658 L4.224,34.658z"/></g><g><linearGradient id="SVGID_7_" x1="46.96" x2="4.51" y1="5.246" y2="47.695" gradientUnits="userSpaceOnUse"><stop offset="0" style="stop-color:#31c2dd"/><stop offset="1" style="stop-color:#0b9bd7"/></linearGradient><path style="fill:url(#SVGID_7_)" d="M11.908,42.527c-0.254,0-0.512-0.064-0.749-0.201c-0.717-0.414-0.963-1.331-0.549-2.049 l1.999-3.464c0.415-0.717,1.332-0.964,2.049-0.549c0.717,0.414,0.963,1.331,0.549,2.049l-1.999,3.464 C12.931,42.259,12.426,42.527,11.908,42.527L11.908,42.527z"/></g><g><linearGradient id="SVGID_8_" x1="53.108" x2="10.658" y1="11.393" y2="53.843" gradientUnits="userSpaceOnUse"><stop offset="0" style="stop-color:#31c2dd"/><stop offset="1" style="stop-color:#0b9bd7"/></linearGradient><path style="fill:url(#SVGID_8_)" d="M22.5,45.498c-0.829,0-1.5-0.672-1.5-1.5v-3.999c0-0.828,0.671-1.5,1.5-1.5 s1.5,0.672,1.5,1.5v3.999C24,44.826,23.329,45.498,22.5,45.498L22.5,45.498z"/></g><g><linearGradient id="SVGID_9_" x1="56.709" x2="14.259" y1="14.994" y2="57.443" gradientUnits="userSpaceOnUse"><stop offset="0" style="stop-color:#31c2dd"/><stop offset="1" style="stop-color:#0b9bd7"/></linearGradient><path style="fill:url(#SVGID_9_)" d="M33.159,42.775c-0.518,0-1.021-0.269-1.3-0.75l-2-3.463 c-0.415-0.717-0.169-1.635,0.549-2.049c0.717-0.415,1.635-0.168,2.049,0.549l2,3.463c0.415,0.717,0.169,1.635-0.549,2.049 C33.673,42.711,33.414,42.775,33.159,42.775L33.159,42.775z"/></g><g><linearGradient id="SVGID_10_" x1="56.801" x2="14.349" y1="15.084" y2="57.535" gradientUnits="userSpaceOnUse"><stop offset="0" style="stop-color:#31c2dd"/><stop offset="1" style="stop-color:#0b9bd7"/></linearGradient><path style="fill:url(#SVGID_10_)" d="M41.024,35.089c-0.254,0-0.512-0.064-0.748-0.201l-3.464-1.999 c-0.718-0.414-0.964-1.331-0.55-2.049c0.415-0.717,1.332-0.963,2.05-0.549l3.464,1.999c0.717,0.414,0.963,1.331,0.549,2.049 C42.048,34.82,41.544,35.089,41.024,35.089L41.024,35.089z"/></g><g><linearGradient id="SVGID_11_" x1="53.355" x2="10.907" y1="11.642" y2="54.09" gradientUnits="userSpaceOnUse"><stop offset="0" style="stop-color:#31c2dd"/><stop offset="1" style="stop-color:#0b9bd7"/></linearGradient><path style="fill:url(#SVGID_11_)" d="M43.997,24.498h-3.999c-0.829,0-1.5-0.672-1.5-1.5s0.671-1.5,1.5-1.5h3.999 c0.828,0,1.5,0.672,1.5,1.5S44.825,24.498,43.997,24.498L43.997,24.498z"/></g><g><linearGradient id="SVGID_12_" x1="47.299" x2="4.849" y1="5.585" y2="48.034" gradientUnits="userSpaceOnUse"><stop offset="0" style="stop-color:#31c2dd"/><stop offset="1" style="stop-color:#0b9bd7"/></linearGradient><path style="fill:url(#SVGID_12_)" d="M37.812,15.84c-0.518,0-1.022-0.269-1.301-0.75c-0.414-0.718-0.168-1.635,0.55-2.049 l3.464-1.999c0.719-0.415,1.635-0.169,2.049,0.549s0.168,1.635-0.549,2.049l-3.464,1.999C38.324,15.775,38.066,15.84,37.812,15.84 L37.812,15.84z"/></g><g><linearGradient id="SVGID_13_" x1="40.254" x2="-2.196" y1="-1.461" y2="40.989" gradientUnits="userSpaceOnUse"><stop offset="0" style="stop-color:#31c2dd"/><stop offset="1" style="stop-color:#0b9bd7"/></linearGradient><path style="fill:url(#SVGID_13_)" d="M31.587,9.436c-0.255,0-0.513-0.064-0.749-0.201c-0.718-0.414-0.964-1.332-0.549-2.049 l2-3.463c0.415-0.717,1.331-0.963,2.049-0.549s0.964,1.332,0.549,2.049l-2,3.463C32.608,9.167,32.104,9.436,31.587,9.436 L31.587,9.436z"/></g></g></svg>