<svg xmlns="http://www.w3.org/2000/svg" xmlns:xlink="http://www.w3.org/1999/xlink" id="Layer_1" width="44.884" height="44.231" x="0" y="0" version="1.1" viewBox="0 0 44.884 44.231" style="enable-background:new 0 0 44.884 44.231" xml:space="preserve"><g><linearGradient id="SVGID_1_" x1="39.894" x2=".462" y1="1.55" y2="40.982" gradientUnits="userSpaceOnUse"><stop offset="0" style="stop-color:#31c2dd"/><stop offset="1" style="stop-color:#0b9bd7"/></linearGradient><path style="fill:url(#SVGID_1_)" d="M34.134,7.355c-0.547,0-1.094,0.043-1.635,0.128C30.626,2.992,26.244,0,21.24,0 C15.362,0,10.373,4.262,9.258,9.858C4.131,9.987,0,14.198,0,19.355c0,4.159,2.781,7.899,6.713,9.08 c0.845,0.278,1.719,0.42,2.6,0.42h25.256c0.966,0,1.923-0.173,2.847-0.513c4.471-1.43,7.469-5.537,7.469-10.237 C44.884,12.178,40.062,7.355,34.134,7.355z M36.164,24.543l-0.103,0.036c-0.489,0.184-0.992,0.276-1.493,0.276H9.312 c-0.454,0-0.907-0.073-1.397-0.234C5.61,23.928,4,21.763,4,19.355c0-3.032,2.467-5.5,5.5-5.5c0.375,0,0.754,0.039,1.125,0.115 l2.354,0.484l0.049-2.402C13.118,7.612,16.802,4,21.24,4c3.827,0,7.113,2.605,7.991,6.336l0.513,2.182l2.109-0.757 c0.748-0.27,1.516-0.405,2.28-0.405c3.723,0,6.75,3.028,6.75,6.75C40.884,21.067,38.987,23.655,36.164,24.543z"/><linearGradient id="SVGID_2_" x1="42.282" x2="2.852" y1="3.941" y2="43.371" gradientUnits="userSpaceOnUse"><stop offset="0" style="stop-color:#31c2dd"/><stop offset="1" style="stop-color:#0b9bd7"/></linearGradient><path style="fill:url(#SVGID_2_)" d="M13.472,31.469c-0.718-0.415-1.634-0.168-2.049,0.549l-1.999,3.464 c-0.414,0.718-0.168,1.635,0.549,2.049c0.236,0.137,0.494,0.201,0.749,0.201c0.519,0,1.023-0.269,1.301-0.75l1.999-3.464 C14.436,32.8,14.189,31.883,13.472,31.469z"/><linearGradient id="SVGID_3_" x1="47.033" x2="7.602" y1="8.691" y2="48.122" gradientUnits="userSpaceOnUse"><stop offset="0" style="stop-color:#31c2dd"/><stop offset="1" style="stop-color:#0b9bd7"/></linearGradient><path style="fill:url(#SVGID_3_)" d="M22.972,31.469c-0.717-0.415-1.635-0.168-2.049,0.549l-1.999,3.464 c-0.414,0.718-0.168,1.635,0.549,2.049c0.236,0.137,0.494,0.201,0.749,0.201c0.519,0,1.023-0.269,1.301-0.75l1.999-3.464 C23.936,32.8,23.689,31.883,22.972,31.469z"/><linearGradient id="SVGID_4_" x1="51.781" x2="12.354" y1="13.442" y2="52.87" gradientUnits="userSpaceOnUse"><stop offset="0" style="stop-color:#31c2dd"/><stop offset="1" style="stop-color:#0b9bd7"/></linearGradient><path style="fill:url(#SVGID_4_)" d="M32.472,31.469c-0.717-0.415-1.635-0.168-2.049,0.549l-1.999,3.464 c-0.414,0.718-0.168,1.635,0.55,2.049c0.236,0.137,0.494,0.201,0.748,0.201c0.519,0,1.023-0.269,1.301-0.75l1.999-3.464 C33.436,32.8,33.189,31.883,32.472,31.469z"/><linearGradient id="SVGID_5_" x1="46.938" x2="7.509" y1="8.599" y2="48.028" gradientUnits="userSpaceOnUse"><stop offset="0" style="stop-color:#31c2dd"/><stop offset="1" style="stop-color:#0b9bd7"/></linearGradient><path style="fill:url(#SVGID_5_)" d="M16.285,37.969c-0.717-0.414-1.635-0.168-2.049,0.549l-1.999,3.464 c-0.414,0.718-0.168,1.635,0.549,2.049c0.236,0.137,0.494,0.201,0.749,0.201c0.519,0,1.023-0.269,1.301-0.75l1.999-3.464 C17.248,39.3,17.002,38.383,16.285,37.969z"/><linearGradient id="SVGID_6_" x1="51.688" x2="12.259" y1="13.348" y2="52.777" gradientUnits="userSpaceOnUse"><stop offset="0" style="stop-color:#31c2dd"/><stop offset="1" style="stop-color:#0b9bd7"/></linearGradient><path style="fill:url(#SVGID_6_)" d="M25.784,37.969c-0.717-0.414-1.635-0.168-2.049,0.549l-1.999,3.464 c-0.414,0.718-0.168,1.635,0.549,2.049c0.236,0.137,0.494,0.201,0.749,0.201c0.519,0,1.023-0.269,1.301-0.75l1.999-3.464 C26.748,39.3,26.502,38.383,25.784,37.969z"/></g></svg>