<svg xmlns="http://www.w3.org/2000/svg" xmlns:xlink="http://www.w3.org/1999/xlink" id="Layer_1" width="42.449" height="35.958" x="0" y="0" version="1.1" viewBox="0 0 42.449 35.958" style="enable-background:new 0 0 42.449 35.958" xml:space="preserve"><g><g><linearGradient id="SVGID_1_" x1="32.69" x2="-8.301" y1="-11.239" y2="29.752" gradientUnits="userSpaceOnUse"><stop offset="0" style="stop-color:#31c2dd"/><stop offset="1" style="stop-color:#0b9bd7"/></linearGradient><path style="fill:url(#SVGID_1_)" d="M36.385,4H2.514c-1.104,0-2-0.896-2-2s0.896-2,2-2h33.871c1.104,0,2,0.896,2,2 S37.489,4,36.385,4L36.385,4z"/></g><g><linearGradient id="SVGID_2_" x1="37.69" x2="-3.3" y1="-6.237" y2="34.753" gradientUnits="userSpaceOnUse"><stop offset="0" style="stop-color:#31c2dd"/><stop offset="1" style="stop-color:#0b9bd7"/></linearGradient><path style="fill:url(#SVGID_2_)" d="M40.449,10.392H5.676c-1.104,0-2-0.896-2-2s0.896-2,2-2h34.773c1.104,0,2,0.896,2,2 S41.554,10.392,40.449,10.392L40.449,10.392z"/></g><g><linearGradient id="SVGID_3_" x1="39.419" x2="-1.571" y1="-4.508" y2="36.481" gradientUnits="userSpaceOnUse"><stop offset="0" style="stop-color:#31c2dd"/><stop offset="1" style="stop-color:#0b9bd7"/></linearGradient><path style="fill:url(#SVGID_3_)" d="M36.385,16.783H3.869c-1.104,0-2-0.896-2-2s0.896-2,2-2h32.516c1.104,0,2,0.896,2,2 S37.489,16.783,36.385,16.783L36.385,16.783z"/></g><g><linearGradient id="SVGID_4_" x1="38.874" x2="-2.116" y1="-5.054" y2="35.937" gradientUnits="userSpaceOnUse"><stop offset="0" style="stop-color:#31c2dd"/><stop offset="1" style="stop-color:#0b9bd7"/></linearGradient><path style="fill:url(#SVGID_4_)" d="M23.289,23.175H2c-1.104,0-2-0.896-2-2s0.896-2,2-2h21.289c1.104,0,2,0.896,2,2 S24.394,23.175,23.289,23.175L23.289,23.175z"/></g><g><linearGradient id="SVGID_5_" x1="42.438" x2="1.449" y1="-1.488" y2="39.501" gradientUnits="userSpaceOnUse"><stop offset="0" style="stop-color:#31c2dd"/><stop offset="1" style="stop-color:#0b9bd7"/></linearGradient><path style="fill:url(#SVGID_5_)" d="M19.283,29.566H7.482c-1.104,0-2-0.896-2-2s0.896-2,2-2h11.801c1.104,0,2,0.896,2,2 S20.388,29.566,19.283,29.566L19.283,29.566z"/></g><g><linearGradient id="SVGID_6_" x1="46.501" x2="5.512" y1="2.576" y2="43.565" gradientUnits="userSpaceOnUse"><stop offset="0" style="stop-color:#31c2dd"/><stop offset="1" style="stop-color:#0b9bd7"/></linearGradient><path style="fill:url(#SVGID_6_)" d="M17.283,35.958h-4.332c-1.104,0-2-0.896-2-2s0.896-2,2-2h4.332c1.104,0,2,0.896,2,2 S18.388,35.958,17.283,35.958L17.283,35.958z"/></g></g></svg>