<svg xmlns="http://www.w3.org/2000/svg" xmlns:xlink="http://www.w3.org/1999/xlink" id="Layer_1" width="44.884" height="44.584" x="0" y="0" version="1.1" viewBox="0 0 44.884 44.584" style="enable-background:new 0 0 44.884 44.584" xml:space="preserve"><g><linearGradient id="SVGID_1_" x1="40.147" x2=".853" y1="1.295" y2="40.589" gradientUnits="userSpaceOnUse"><stop offset="0" style="stop-color:#31c2dd"/><stop offset="1" style="stop-color:#0b9bd7"/></linearGradient><path style="fill:url(#SVGID_1_)" d="M34.134,7.355c-0.548,0-1.094,0.043-1.637,0.128C30.625,2.992,26.244,0,21.24,0 C15.361,0,10.372,4.262,9.258,9.858C4.131,9.987,0,14.198,0,19.355c0,4.159,2.781,7.899,6.713,9.08c0.845,0.278,1.72,0.42,2.6,0.42 h25.255c0.966,0,1.924-0.173,2.848-0.513c4.469-1.431,7.469-5.538,7.469-10.237C44.884,12.178,40.062,7.355,34.134,7.355z M36.164,24.544l-0.102,0.035c-0.49,0.184-0.992,0.276-1.494,0.276H9.312c-0.454,0-0.907-0.073-1.398-0.234 C5.61,23.929,4,21.763,4,19.355c0-3.032,2.467-5.5,5.5-5.5c0.375,0,0.753,0.039,1.125,0.115l2.354,0.483l0.048-2.402 C13.118,7.612,16.802,4,21.24,4c3.828,0,7.113,2.605,7.991,6.336l0.513,2.182l2.109-0.757c0.748-0.27,1.516-0.405,2.281-0.405 c3.722,0,6.75,3.028,6.75,6.75C40.884,21.067,38.988,23.655,36.164,24.544z"/><linearGradient id="SVGID_2_" x1="49.103" x2="9.809" y1="10.252" y2="49.545" gradientUnits="userSpaceOnUse"><stop offset="0" style="stop-color:#31c2dd"/><stop offset="1" style="stop-color:#0b9bd7"/></linearGradient><path style="fill:url(#SVGID_2_)" d="M24.941,34.459h-2.309l0.558-0.902c0.436-0.705,0.217-1.63-0.487-2.065 c-0.705-0.435-1.629-0.218-2.064,0.487l-1.973,3.191c-0.286,0.463-0.299,1.044-0.034,1.52c0.265,0.475,0.766,0.77,1.31,0.77h2.438 l-2.746,4.891c-0.405,0.723-0.148,1.637,0.574,2.042c0.232,0.131,0.484,0.192,0.733,0.192c0.525,0,1.034-0.275,1.31-0.766l4-7.125 c0.261-0.465,0.256-1.032-0.014-1.492S25.474,34.459,24.941,34.459z"/></g></svg>